<?xml version="1.0" encoding="utf-8"?>
<!-- Generator: Adobe Illustrator 16.0.3, SVG Export Plug-In . SVG Version: 6.00 Build 0)  -->
<!DOCTYPE svg PUBLIC "-//W3C//DTD SVG 1.1//EN" "http://www.w3.org/Graphics/SVG/1.1/DTD/svg11.dtd">
<svg version="1.1" id="Ebene_1" xmlns="http://www.w3.org/2000/svg" xmlns:xlink="http://www.w3.org/1999/xlink" x="0px" y="0px"
	 width="1984.254px" height="810.709px" viewBox="0 0 1984.254 810.709" enable-background="new 0 0 1984.254 810.709"
	 xml:space="preserve">
<g>
	<polygon fill="#000001" points="412.796,482.631 412.787,482.631 412.787,482.638 	"/>
	<path fill="#000001" d="M1351.445,418.522v70.97h42.034h5.3v5.3c0,7.367,0,14.732,0,22.1h5.68v-98.387h-53.023l0.009,0.01V418.522z
		"/>
	<polygon fill="#000001" points="936.998,496.926 937.354,496.926 940.008,496.926 942.662,496.926 943.051,496.926 
		943.051,366.972 978.694,366.972 978.694,322.65 978.685,322.65 978.685,322.657 925.787,322.657 925.787,335.704 936.998,335.704 
			"/>
	<path fill="#000001" d="M1730.33,511.799c2.589-0.43,5.226-0.562,7.78-0.406c12.262,0.728,22.663,7.648,25.896,19.198
		c1.315,0,2.637,0,3.952,0h5.06V398.25h5.3v-39.562h-55.535v0.009v28.341v4.754v114.541
		C1722.782,515.916,1722.03,513.155,1730.33,511.799z"/>
	<polygon fill="#000001" points="656.063,507.5 662.545,518.728 705.786,518.728 705.786,443.118 705.786,439.199 705.786,297.515 
		656.054,297.515 656.063,297.524 	"/>
	<path fill="#000001" d="M515.731,495.379c0,2.918,0,5.846,0,8.772h3.125v5.299c0,0.62,0,1.224,0,1.843c1.793,0,3.604,0,5.407,0
		h5.299v3.572c5.002,0,9.988,0,14.982,0c0-26.359,0-52.715,0-79.073v-5.299h5.3h17.842v-118.03h-54.411v0.008
		c0,59.205,0,118.402,0,177.607h2.456L515.731,495.379L515.731,495.379z"/>
	<path fill="#000001" d="M830.533,483.217h12.725c0-17.295,0-34.6,0-51.896v-5.3h5.299h20.381v-88.54v-1.769v-27.325h0.008v-0.008
		h-46.101V439.1h7.689L830.533,483.217L830.533,483.217z"/>
	<path fill="#000001" d="M928.045,486.805v5.3c0,1.612,0,3.216,0,4.827h3.646V341.02h-56.668v0.008v85.001v2.653v2.654
		c0,18.487,0,36.974,0,55.469c15.899,0,31.815,0,47.723,0L928.045,486.805L928.045,486.805z"/>
	<path fill="#000001" d="M724.902,518.719v5.301c0,12.229,0,24.447,0,36.667c2.521,0,5.043,0,7.565,0c0-4.092,0-8.185,0-12.277v-5.3
		h2.042v-93.384h7.945v75.51h2.175h4.283v-75.51h7.945v57.634h6.449v-57.634h7.946v57.634h2.571h3.869v-57.634h7.945v68.655h6.441
		v-68.655h7.946v68.655h4.109v3.869c1.62,0,3.249,0,4.878,0h5.299v5.3c0,1.521,0,3.05,0,4.581c2.498,0,5.011,0,7.508,0
		c0-14.535,0-29.079,0-43.612v-5.3h3.423v-38.8h-7.689V216.823h-5.672v-51.087h-7.252v-17.296h-6.531v-10.21h-7.094v-7.094h-9.359
		c-2.365-15.51-7.094-30.83-7.094-46.522v-14.75h-3.696V0h-5.672v69.862h-3.969v14.75c0,15.725-5.299,31.012-7.945,46.522h-9.649
		v7.094h-5.961v10.21h-6.805v17.296h-6.97v51.087h-5.068v227.594l-7.689,0.05v74.252h8.475H724.902z M790.507,168.001h7.946v47.781
		h-7.946V168.001z M763.05,168.001h7.945v271.323h-7.945V168.001z M736.915,168.001h7.945v47.781h-7.945V168.001z"/>
	<path fill="#000001" d="M1517.845,434.817c-3.481,3.886-6.086,8.417-7.582,13.783v12.128l-0.009,0.009
		c0,2.91-0.703,4.307,1.513,1.381c3.547-4.705,5.978-10.559,7.847-16.263c-0.802-0.992-1.398-2.133-1.72-3.44
		c-0.72-3.001,0.297-5.853,1.984-8.267C1519.531,431.974,1519.027,433.503,1517.845,434.817z"/>
	<polygon fill="#000001" points="1641.21,459.158 1641.21,459.165 1641.219,459.166 	"/>
	<polygon fill="#000001" points="1496.902,507.921 1496.902,507.93 1496.91,507.921 	"/>
	<path fill="#000001" d="M1460.218,457.323h16.395h5.299v5.299c0,15.792,0,31.592,0,47.391c3.15,2.471,6.052,5.184,8.698,8.127
		c0.926,1.025,0.67,1.125,1.894,0.703c0.563-2.555,2.059-3.985,4.398-4.598v-6.316c-1.43-2.109-2.86-4.217-4.291-6.333l4.316-4.953
		V393.512v-6.953v-36.005h-36.709L1460.218,457.323L1460.218,457.323z"/>
	<path fill="#000001" d="M1665.775,509.74v-30.152c-0.926-12.988-12.493-19.718-24.564-20.421v-0.001
		c-4.133-0.238-3.876,0.574-2.439,4.523c1.67,0.554,3.349,1.108,5.02,1.67l3.629,1.208v3.819c0,2.736,0,5.473,0,8.202
		c1.463,0.513,2.918,1.017,4.374,1.529l5.35,1.869l-2.225,5.217c-1.125,2.662-2.257,5.308-3.382,7.954
		c0.033,2.836,0.074,5.672,0.108,8.507c1.43,1.704,2.861,3.415,4.291,5.118c0,1.496,0,3.001,0,4.498
		c1.19,0.025,2.373,0.04,3.555,0.065c1.059-1.206,2.133-2.406,3.192-3.605h2.381L1665.775,509.74L1665.775,509.74z"/>
	<path fill="#000001" d="M1969.613,664.761c-23.846-21.24-35.561-53.195-76.859-48.417c0-2.48,0-4.96,0-7.441
		c-1.984,0-3.969,0-5.953,0c0,2.621,0,5.259,0,7.888c-1.885,0-3.77,0-5.654,0c0-1.688,0-3.374,0-5.06c-2.572,0-5.16,0-7.74,0
		c0-4.176,0-8.343,0-12.51c-2.62,0-5.258,0-7.887,0c0,4.109,0,8.235,0,12.353c-1.538,0-3.067,0-4.605,0c0-4.365,0-8.74,0-13.104
		c-2.67-7.623-8.756-12.137-15.791-15.792c-7.747,0-15.486,0-23.233,0v-23.835c0-14.559-21.158-16.437-21.158,0v22.339
		c-4.572,0-9.135,0-13.707,0c0,3.075,0,6.16,0,9.235c-3.274,0-6.549,0-9.831,0c0,2.381,0,4.771,0,7.152c-1.596,0-3.184,0-4.771,0
		c0-5.862,0-11.716,0-17.578c-1.496,0-2.984,0-4.473,0c0-14.701,0-29.401,0-44.092c-2.786,0-5.563,0-8.343,0
		c-2.679-27.012-47.267-24.333-46.176,0h-36.859v0.008l0.016,0.017v0.115l-1.041,1.348c0,1.563,0,3.125,0,4.688v3.001l-2.571,1.546
		c-1.563,0.935-3.125,1.877-4.688,2.81c-0.951,1.663-2.125,3.135-3.531,4.374c-0.885,0.786-1.115,0.843-0.248,1.703
		c2.621,2.62,2.928,6.21,0.678,9.69c0.926,14.37,1.869,28.756,2.794,43.125c4.432,2.96,4.771,9.359,1.042,12.791
		c0.62,9.326,1.232,18.669,1.852,28.002c1.414,1.033,2.654,2.241,3.324,3.993c0.24,0.613,0.364,1.191,0.438,1.762
		c1.571,0.761,2.952,1.828,3.787,3.588c0.479,1,0.636,1.901,0.686,2.786c1.96,1.62,2.58,4.002,2.522,6.465
		c0.81,1.066,1.637,2.142,2.447,3.208h5.292v5.299v0.132l280.299-0.165C1994.541,676.171,1982.841,676.542,1969.613,664.761z"/>
	<path fill="#000001" d="M89.304,616.891c7.186-3.167,15.106-7.358,20.695-13.13c0-14.013,0-28.029,0-42.05v-5.3h5.3h7.747v-97.113
		h-57.09v166.232C73.844,622.934,81.749,620.223,89.304,616.891z"/>
	<path fill="#000001" d="M251.77,483.738v0.911c0,7.763,0,15.535,0,23.297c2.902,0,5.796,0,8.698,0h5.299v5.3
		c0,9.426,0,18.833,0,28.259h15.453V269.892c0-1.462,1.19-2.653,2.654-2.653s2.654,1.191,2.654,2.653v271.612h4.349V228.712
		c0-1.463,1.19-2.654,2.654-2.654c1.464,0,2.654,1.191,2.654,2.654v312.794h4.349V269.893c0-1.462,1.19-2.654,2.654-2.654
		s2.654,1.191,2.654,2.654v271.612h39.363v-27.647h-8.665v-43.107h-3.126V445.65h-9.549v-18.652h-3.901c0-49.74,0-99.478,0-149.208
		c-0.827,0-1.663,0-2.498,0v-12.708c9.558-5.54-0.231-2.935-6.283-2.935l0.042-0.008h0.008c0-10.12-0.107-20.355-0.107-30.418
		c0-4.423-0.678-8.606-1.869-12.31c0.1-3.241-0.603-11.757-2.687-16.015c-0.016-4.266-1.29-10.252-2.595-13.56
		c0.728-5.53,0.058-9.624-2.662-14.551c0.074-0.843,0.108-1.72,0.108-2.605c0-5.043-1.199-9.524-3.076-12.369
		c0.008-0.43,0.016-0.86,0.016-1.298c0-5.432-0.852-10.219-2.158-13.005v-0.149c0-9.309-0.455-18.727-0.976-28.168
		c-1.563-28.094-1.224-34.567-3.291,0.513c-0.546,9.285-1,18.528-1,27.664v0.148c-1.298,2.786-2.157,7.573-2.157,13.005
		c0,0.438,0.008,0.868,0.016,1.298c-1.869,2.844-3.075,7.325-3.075,12.369c0,0.885,0.041,1.761,0.107,2.604
		c-2.72,4.936-3.389,9.021-2.661,14.552c-1.307,3.307-2.58,9.293-2.596,13.559c-1.728,3.522-2.712,14.94-2.704,15.437
		c-1.315,3.843-2.059,8.242-2.059,12.896c0,10.128,0.107,20.281,0.107,30.417c-5.779,0-14.849-2.587-6.283,2.936
		c0,4.233,0,8.466,0,12.708c-0.711,0-1.405,0-2.117,0v149.208h-3.472v18.652h-9.112v25.101h-3.935v10.806l0.471,1.323
		L251.77,483.738z M286.81,217.475h-0.009l-2.406-4.506l3.97,3.448C287.81,216.732,287.298,217.087,286.81,217.475z
		 M288.537,205.471c0.002-0.001,0.005-0.002,0.007-0.003l-1.744-5.296l4.043,4.522c-0.783,0.181-1.557,0.445-2.299,0.773l0,0.003
		H288.537z M288.488,182.222h-0.009c0.003-0.002,0.006-0.003,0.009-0.005l-0.232-5.296l2.381,4.522
		c-0.56,0.182-1.61,0.444-2.149,0.773V182.222z M293.473,204.387c-0.389,0-0.769,0.024-1.149,0.058l1.273-6.109v0.008l1.282,6.135
		C294.407,204.421,293.944,204.387,293.473,204.387z M293.597,187.215l1.422,6.136c-0.612-0.108-2.232-0.116-2.835-0.024
		L293.597,187.215z M292.184,181.204l1.414-6.109l1.422,6.135C294.407,181.121,292.787,181.114,292.184,181.204z M300.377,200.163
		l-1.777,5.399c-0.759-0.354-1.525-0.635-2.309-0.826l-0.007,0.007v-0.008c0.003,0,0.004,0.001,0.007,0.001L300.377,200.163z
		 M296.524,181.494v-0.008c0.003,0.001,0.008,0.002,0.011,0.003l2.412-4.576l-0.256,5.399c-0.535-0.354-1.583-0.633-2.155-0.823
		l-0.002,0.005H296.524z M300.517,217.475c-0.487-0.396-1.001-0.76-1.554-1.058l-0.009-0.008l3.969-3.448L300.517,217.475z
		 M304.494,225.33c-0.024-0.521-0.091-1.025-0.182-1.521l-0.009-0.008l4.225,0.777L304.494,225.33z M307.058,218.128l-3.762,2.754
		c-0.273-0.521-0.579-1.009-0.917-1.472h-0.009L307.058,218.128z M305.345,205.132l-3.158,2.819
		c-0.526-0.461-1.053-0.872-1.604-1.251l-0.008,0.002v-0.008c0.003,0.001,0.005,0.004,0.008,0.006L305.345,205.132z
		 M301.758,196.823c-0.371-0.461-0.758-0.873-1.144-1.252l-0.006,0.003v-0.008c0.001,0.001,0.003,0.003,0.006,0.005l2.384-1.567
		L301.758,196.823z M299.6,183.445c0.001,0.001,0.003,0.004,0.005,0.005l2.385-1.567l-1.24,2.819
		c-0.371-0.461-0.757-0.873-1.145-1.252l-0.005,0.004V183.445L299.6,183.445z M299.194,194.433
		c-0.534-0.354-1.583-0.634-2.154-0.823l-0.003,0.004h-0.008v-0.008c0.003,0.001,0.008,0.002,0.012,0.004l2.411-4.577
		L299.194,194.433z M299.377,166.273l-1.009,5.398c-0.644-0.355-1.298-0.636-1.984-0.827h0.008L299.377,166.273z M295.83,158.195
		c0,0,0.001,0,0.002,0.002l1.346-4.574l-0.298,5.398c-0.346-0.354-0.693-0.635-1.048-0.825l-0.002,0.007V158.195L295.83,158.195z
		 M296.971,210.084l-0.232,5.383c-0.627-0.183-1.263-0.314-1.923-0.389l-0.003,0.008v-0.008c0.001,0,0.002,0,0.003,0
		L296.971,210.084z M293.597,138.154l0.008-0.008l-0.005,0.027l1.088,6.116c-0.397-0.058-0.793-0.091-1.199-0.091
		c-0.331,0-0.661,0.024-0.976,0.058l1.086-6.083L293.597,138.154z M293.58,151.805h0.009l1.083,6.134
		c-0.389-0.107-1.786-0.115-2.174-0.024L293.58,151.805z M293.589,164.446l1.604,6.135c-1.009-0.148-2.183-0.148-3.199-0.024
		L293.589,164.446z M292.507,215.086c-0.662,0.074-1.307,0.198-1.927,0.389l-0.232-5.374v-0.008v-0.008L292.507,215.086z
		 M291.348,158.162c-0.355,0.182-0.712,0.446-1.042,0.777h-0.009l-0.28-5.299L291.348,158.162z M290.745,170.803
		c-0.678,0.183-1.331,0.447-1.968,0.778l-0.976-5.3L290.745,170.803z M290.116,193.566c-0.56,0.181-1.611,0.444-2.15,0.773v0.004
		h-0.008c0.002-0.001,0.005-0.003,0.008-0.004l-0.23-5.295L290.116,193.566z M287.478,183.395c-0.388,0.364-0.76,0.762-1.116,1.199
		l-1.149-2.712L287.478,183.395z M286.462,195.517c-0.389,0.364-0.761,0.76-1.116,1.198l-1.149-2.711L286.462,195.517z
		 M286.437,206.644c-0.538,0.364-1.058,0.761-1.57,1.199l-3.035-2.711L286.437,206.644z M284.957,219.418
		c-0.347,0.463-0.652,0.951-0.917,1.472h-0.008l-3.762-2.753L284.957,219.418z M283.023,223.808c-0.099,0.496-0.158,1-0.182,1.521
		h-0.009l-4.034-0.744L283.023,223.808z"/>
	<path fill="#000001" d="M144.436,556.411v5.3c0,12.766,0,25.523,0,38.288c2.439,0,4.895,0,7.333,0c0-21.769,0-43.538,0-65.307
		v-5.299h4.663v-47.672h-28.085v74.69h10.79H144.436L144.436,556.411z"/>
	<path fill="#000001" d="M394.184,471.907c3.68,0,7.342,0,11.021,0c0,3.581,0,7.152,0,10.724c2.528,0,5.055,0,7.582,0v-0.05v-4.05
		c0-60.107,0-120.222,0-180.329h-29.98L382.8,459.993c3.671,0,7.722,0,11.385,0C394.184,463.962,394.184,467.938,394.184,471.907z"
		/>
	<polygon fill="#000001" points="65.956,459.281 65.948,459.29 65.939,459.299 65.956,459.299 	"/>
	<path fill="#000001" d="M1488.692,579.735c-2.662-2.654-3.282-6.845-1.645-10.045c0.38-0.743,0.595-0.628,0.016-1.24
		c-1.05-1.107-1.612-0.802-3.174-0.802h-5.3v-5.3c0-1.157,0-2.298,0-3.448c-0.223-0.239-0.446-0.479-0.668-0.719l-1.43-1.528
		v-19.521c0-1.396,0.479-2.736,1.372-3.812c0.818-0.992,1.77-1.563,2.795-1.877c0.438-1.446,1.281-2.711,2.811-3.571
		c0.413-0.239,0.769-0.404,1.107-0.521c0.464-1.323,1.274-2.504,2.581-3.373c1.24-0.828,1.199-0.489,0.107-1.729
		c-3.208-3.655-6.755-6.87-10.624-9.648c0-16.685,0-33.369,0-50.053c-22.142,0-44.299,0-66.44,0c0,19.859,0,39.719,0,59.585
		c-5.556,0-11.129,0-16.685,0c0-9.136,0-18.271,0-27.408c-21.753,0-43.497,0-65.25,0c0,18.958,0,37.933,0,56.899
		c-2.273,0-4.563,0-6.846,0c0-5.365,0-10.731,0-16.089c-3.68,0-7.351,0-11.029,0c0,2.382,0,4.771,0,7.152c-3.274,0-6.548,0-9.831,0
		c0,1.993,0,3.969,0,5.961c-2.58,0-5.167,0-7.747,0c0-2.274,0-4.564,0-6.845c-3.258,0-6.507,0-9.757,0c0-14.634,0-29.276,0-43.91
		c-14.609-51.467-10.997-49.855-24.514,0.942c0,14.195,0,28.376,0,42.571c-1.249,0-2.489,0-3.729,0c0-6.316,0-12.642,0-18.966
		c-0.836,0-1.688,0-2.531,0c0-4.573,0-9.136,0-13.708c-1.389,0-2.778,0-4.167,0c0-3.571,0-7.143,0-10.723c-3.572,0-7.143,0-10.724,0
		c0-8.145,0-16.287,0-24.431c-3.969,0-7.945,0-11.914,0c0,13.112,0,26.226,0,39.329c-1.2,0-2.39,0-3.581,0
		c0,13.006,0,26.02,0,39.024c-4.852,0-9.723,0-14.592,0c0,3.869,0,7.747,0,11.617c-3.374,0-6.747,0-10.129,0
		c0-3.771,0-7.55,0-11.319c-4.572,0-9.136,0-13.708,0c0-15.287,0-30.582,0-45.877c-12.336-34.65-9.74-44.696-21.456-4.465
		c-3.679,0-7.351,0-11.029,0c0-22.446,0-44.885,0-67.333c-3.48,0-6.944,0-10.426,0c-3.721-3.72-6.837-10.508-6.837-2.472
		c0,3.208,0,6.424,0,9.632c-5.068,0-10.128,0-15.197,0c0-4.464,0-8.938,0-13.402c-2.092,0-4.167,0-6.259,0c0,1.993,0,3.969,0,5.96
		c-6.061,0-12.112,0-18.172,0c0-2.19,0-4.365,0-6.556c-2.381,0-4.77,0-7.151,0c0,5.556,0,11.128,0,16.685c-1.993,0-3.969,0-5.962,0
		c0-2.092,0-4.167,0-6.259c-2.976,0-5.961,0-8.937,0c0-3.572,0-7.143,0-10.723c-3.374,0-6.747,0-10.128,0c0,22.546,0,45.083,0,67.63
		c-3.481,0-6.945,0-10.426,0c0,10.929,0,21.852,0,32.774c-3.82,0-7.648,0-11.468,0c0,3.819,0,7.647,0,11.467
		c-6.184,1.545-9.062,4.969-9.69,9.689c-3.572,0-7.143,0-10.723,0c0-15.592,0-31.177,0-46.771
		c-8.161-28.557-5.987-28.764-14.899-0.297c0,11.913,0,23.836,0,35.749c-3.531,0-7.061,0-10.591,0c0,2.39,0,4.788,0,7.177
		c-5.474,2.861-6.407,7.126-6.697,11.583c-2.381,0-4.771,0-7.151,0c0-6.151,0-12.31,0-18.469c-2.274,0-4.564,0-6.846,0
		c0-14.238-0.206-10.435-7.152-0.298c-9.64,0-19.264,0-28.904,0c0-11.824,0-23.638,0-35.452c-4.854,0-9.724,0-14.594,0
		c0-3.374,0-6.747,0-10.128c-17.677,0-35.353,0-53.03,0c0-20.256,0-40.512,0-60.776c-7.053,0-14.105,0-21.158,0
		c0,19.066,0,38.139,0,57.204c-7.16,0-14.304,0-21.455,0c0,16.304,0,32.608,0,48.913c-6.043,0-12.08,0-18.123,0
		c0-3.283,0-6.582,0-9.88c-3.391,0-6.78,0-10.178,0c0-1.29,0-2.58,0-3.869c-8.342,0-16.685,0-25.027,0c0-3.68,0-7.351,0-11.03
		c-6.258,0-12.509,0-18.768,0c0,5.961,0,11.914,0,17.875c-3.481,0-6.945,0-10.426,0c0,5.961,0,11.915,0,17.876
		c-2.273,0-4.563,0-6.846,0c0,5.862,0,11.715,0,17.577c-6.061,0-12.112,0-18.172,0c0-13.988,0-27.978,0-41.966
		c-20.033,0-40.058,0-60.091,0c-3.506-6.069-7.012-12.145-10.517-18.215c0-45.092,0-90.177,0-135.26c-4.853,0-9.723,0-14.593,0
		c0-1.199,0-2.39,0-3.581c-12.716,0-25.424,0-38.14,0c0,43.802,0,87.597,0,131.392c-3.68,0-7.351,0-11.03,0
		c0-8.243,0-16.487,0-24.729c-1.389,0-2.778,0-4.167,0c0-1.091,0-2.191,0-3.282c-0.984,0-1.984,0-2.976,0
		c0-11.517,0-23.042,0-34.559c-9.41,0-18.802,0-28.21,0c0,28.126,0,56.254,0,84.38c-8.524,0-17.065,0-25.59,0c0-1.19,0-2.38,0-3.571
		c-3.571,0-7.143,0-10.714,0c0-2.381,0-4.763,0-7.145c-1.042,0-2.083,0-3.125,0c0-4.687,0-9.383,0-14.079c-4.821,0-9.658,0-14.486,0
		c0-1.232,0-2.447,0-3.663c-1.174,0-2.34,0-3.505,0c0-7.192,0-14.376,0-21.562c-2.357,0-4.722,0-7.078,0c0-2.307,0-4.631,0-6.937
		c-13.121,0-26.259,0-39.38,0c0-1.167,0-2.323,0-3.481c-5.953,0-11.906,0-17.859,0c0,9.368,0,18.751,0,28.126
		c-3.646,0-7.283,0-10.93,0c0,1.315,0,2.621,0,3.927c-3.374,0-6.747,0-10.128,0c0-1.29,0-2.58,0-3.87c-2.381,0-4.771,0-7.152,0
		c0-3.572,0-7.144,0-10.723c-3.679,0-7.342,0-11.021,0c0-3.97,0-7.945,0-11.914c-3.572,0-7.144,0-10.724,0c0-1.853,0-3.721,0-5.581
		c0-4.324-0.041-3.315-3.332-1.001c-7.251,5.117-14.494,10.22-21.736,15.338c0,24.266,0,48.523,0,72.79c-30.873,0-61.746,0-92.617,0
		c0-11.188,0-22.374,0-33.568c-4.672,0-9.334,0-14.005,0c0-9.533,0-19.065,0-28.598c-3.812-10.797-7.624-21.595-11.436-32.401
		c-1.231-3.465-0.917-3.506-2.157-0.025c-3.812,10.714-7.624,21.421-11.435,32.136c0,9.74,0,19.463,0,29.203
		c-11.823,0-23.637,0-35.452,0c0,7.053,0,14.105,0,21.157c-9.641,0-19.265,0-28.905,0c0,23.531,0,47.076,0,70.606
		c-5.978,0-11.964,0-17.942,0c0-14.526,0-29.062,0-43.587c-7.954,0-15.891,0-23.845,0c0,14.708,0,29.409,0,44.107
		c-22.951,26.59-91.261,27.648-111.973,57.205v0.009l0.042-0.058c-8.624,12.302,0.322,14.312,14.989,14.304l1206.364-0.712
		l254.991-0.157v-0.034v-2.744l2.241-1.588c0.447-0.306,0.893-0.629,1.348-0.951c0-0.537,0-1.058,0-1.595v-2.711l2.199-1.588
		c0.463-0.323,0.926-0.661,1.39-1c0.256-9.574,0.504-19.149,0.761-28.722c-0.876-0.91-1.539-1.984-1.918-3.258
		c-0.927-3.083,0.148-6.027,1.876-8.524C1487.965,609.052,1488.329,594.386,1488.692,579.735z"/>
</g>
<g>
	<path fill="#000002" d="M180.08,363.354l-0.008,0.065H176.1V527.55h3.972v-0.263v-0.232v-0.259v-0.258v-0.233v-0.264v-0.23v-0.262
		v-0.234v-0.257v-0.257v-0.235v-0.261v-0.23v-0.264v-0.232v-0.259v-0.256v-0.233v-0.264v-0.228v-0.264v-0.232v-0.26v-0.248v-0.244
		v-0.262v-0.229v-0.263v-0.231v-0.26v-0.253v-0.239v-0.261v-0.231v-0.262v-0.231v-0.261v-0.24v-0.253v-0.261v-0.23v-0.265v-0.23
		v-0.261v-0.244v-0.248v-0.261v-0.231v-0.264v-0.227v-0.264v-0.235v-0.256v-0.259v-0.232v-0.264v-0.229v-0.262v-0.234v-0.258v-0.258
		v-0.234v-0.262v-5.291h5.31c10.058,0,20.125,0,30.191,0c0-7.996,0-15.957,0-23.931v-0.898l0.307-0.876
		c4.17-11.736,8.352-23.442,12.532-35.194l5.027-14.106l4.992,14.113l6.754,18.05h3.942v-25.117h1.223v-74.979h-70.26
		L180.08,363.354z"/>
	<path fill="#000002" d="M476.204,228.164c-7.236,0-14.455,0-21.682,0c7.235-1.66,14.455-3.317,21.682-4.98c0-3.233,0-6.485,0-9.74
		c0-5.419,0.113-4.463-4.968-2.957c-8.941,2.667-17.874,5.336-26.806,7.997c-7.352-2.212-14.702-4.391-22.053-6.592
		c-4.431-1.33-4.578-2.419-4.578,2.368c0,2.767,0,5.498,0,8.255c6.489,1.88,12.971,3.766,19.462,5.648c-6.491,0-12.973,0-19.462,0
		c0,4.313,0,8.617,0,12.92c19.47,0,38.932,0,58.405,0C476.204,236.772,476.204,232.468,476.204,228.164z"/>
	<path fill="#000002" d="M476.195,261.831c-9.339,0-18.676,0-28.022,0c0-2.683,0.992-4.014,2.972-4.014
		c0.106,0,2.599,0.026,7.449,0.13c1.177,0.016,2.343,0.037,3.511,0.058c0.024,0,0.056,0,0.082,0c7.74,0,12.443-0.68,14.097-2.078
		c0-3.228,0-6.465,0-9.695c0-4.61,0.159-2.398-3.592-1.545c-2.7,0.616-6.806,0.925-12.3,0.747c-2.138-0.078-4.265-0.137-6.4-0.211
		c-5.19-0.173-8.404,2.691-9.653,8.054c-1.599-5.348-4.677-8.011-9.207-8.011c-2.334,0-4.668,0-7.001,0
		c-3.594,0-6.195,1.345-7.858,4.04c-1.653,2.689-2.481,5.844-2.481,9.496c0,5.314,0,10.646,0,15.951c19.47,0,38.93,0,58.404,0
		C476.195,270.438,476.195,266.135,476.195,261.831z M425.323,261.822c0-2.68,1.02-4.014,3.066-4.014c3.2,0,6.399,0,9.601,0
		c2.06,0,3.105,1.333,3.105,4.014C435.837,261.822,430.58,261.822,425.323,261.822z"/>
	<polygon fill="#000002" points="417.8,436.275 444.43,436.275 417.8,443.663 417.8,455.026 417.8,458.348 417.8,480.64 
		422.501,480.64 422.501,458.348 422.501,457.794 422.501,455.441 422.501,455.019 422.501,452.48 451.003,452.48 451.003,455.969 
		476.204,455.969 476.204,447.574 445.094,447.574 476.204,438.796 476.204,425.506 417.8,425.506 	"/>
	<path fill="#000002" d="M1652.483,453.729l0.005-0.006c-0.005-0.001-0.009-0.002-0.013-0.003L1652.483,453.729z"/>
	<path fill="#000002" d="M1652.494,453.719l-0.005,0.003c10.507,3.296,18.987,11.133,19.87,23.58l0.017,0.198v0.172v30.204h0.195
		h5.314v5.312v15.57h32c0.641-3.263,1.993-6.292,4.086-9.007c1.399-1.808,3.055-3.354,4.868-4.677V390.33h-13.195v-1.903h-7.222
		v-14.1h-28.573v15.994h-17.354V453.719z"/>
	<path fill="#000002" d="M1504.141,462.229h1.933c0-5.19,0-10.382,0-15.571v-0.736l0.209-0.683
		c2.661-9.624,8.374-16.746,15.717-22.287c-0.55-8.085-0.415-16.469,1.525-24.286c0.742-3.086-1.082-1.888-3.917-1.888h-0.013
		l-0.015,0.006h-17.495v65.444h0.098H1504.141z"/>
	<path fill="#000002" d="M441.335,315.523c-6.367-2.285-12.75-4.572-19.125-6.86c-3.915-1.412-4.412-2.775-4.412,1.686
		c0,2.776,0,5.545,0,8.335c6.896,2.206,13.792,4.397,20.688,6.614c-6.896,1.933-13.792,3.866-20.688,5.819c0,3.088,0,6.171,0,9.256
		c0,4.024,0.198,3.037,3.874,1.903c8.743-2.713,15.34-4.819,19.785-6.284c6.001-1.982,10.026-3.324,12.096-3.324
		c7.549,0,15.099,0,22.651,0c0-4.313,0-8.617,0-12.921c-7.702,0-15.399,0-23.098,0C449.19,318.333,445.258,316.927,441.335,315.523z
		"/>
	<path fill="#000002" d="M466.137,277.623c-12.534,0-25.058,0-37.593,0c-7.519,0-11.276,4.867-11.276,14.644
		c0,9.896,3.783,14.842,11.357,14.842c12.531,0,25.053,0,37.584,0c7.004,0,10.515-4.918,10.515-14.756
		c0-4.381-0.91-7.924-2.749-10.654C472.148,278.986,469.548,277.623,466.137,277.623z M466.832,294.533c-13.27,0-26.532,0-39.795,0
		c-1.166,0-1.753-0.741-1.753-2.181c0-1.397,0.595-2.104,1.753-2.104c13.271,0,26.534,0,39.795,0c1.167,0,1.756,0.707,1.756,2.104
		C468.588,293.802,467.999,294.533,466.832,294.533z"/>
	<path fill="#000002" d="M948.743,370.25V530.54h15.118c1.848-2.725,3.707-5.431,5.577-8.13l9.689-14.155v17.131
		c0,1.798,0,3.613,0,5.432c0.509,0,1.02,0,1.55,0h5.301v5.314c0,1.73,0,3.461,0,5.19c0,3.751,1.168,0.333,3.241-1.212
		c0-1.439,0-2.847,0-4.284v-5.293h1.028V370.242h-41.512L948.743,370.25z"/>
	<path fill="#000002" d="M574.387,428.52h3.573h5.309v5.283c0,9.766,0,19.55,0,29.318h2.978v3.281h2.094h2.098h0.411V364.911v-5.302
		h5.308h31.315v-96.224v-0.009h-53.087L574.387,428.52L574.387,428.52z"/>
	<path fill="#000002" d="M468.712,409.752c-6.84,0-13.695,0-20.532,0c0-3.674,0-7.328,0-10.999c-2.36,0-4.728,0-7.079,0
		c0,3.671,0,7.325,0,10.999c-5.257,0-10.514,0-15.771,0c0-4.061,0-8.119,0-12.185c-2.508,0-5.024,0-7.533,0
		c0,8.361,0,16.729,0,25.102h58.406V397.4c-2.494,0-5,0-7.492,0C468.712,401.52,468.712,405.648,468.712,409.752z"/>
	<path fill="#000002" d="M1174.676,407.001h-0.048v55.22l1.872,5.332c4.19,11.715,8.379,23.452,12.542,35.195l0.309,0.843v0.932
		v40.333h13.236h5.314h0.158h0.134h0.148h0.154h0.13h0.155h0.158h0.158h0.158h0.127h0.155h0.144h0.138h0.158h0.158h0.158h0.149
		h0.134h0.157h0.137h0.145h0.157h0.158h0.157h0.139h0.143h0.008h5.533c0-11.278,0-22.511,0-33.789v-5.303h3.566
		c0-11.359,0-22.708,0-34.04v-5.312h5.307c3.97,0,7.949,0,11.934,0h5.298v5.312c0,6.368,0,12.747,0,19.119c1.801,0,3.618,0,5.425,0
		h0.739v-83.849h-74.88L1174.676,407.001z"/>
	<path fill="#000002" d="M417.8,348.012c0,2.196,0,4.407,0,6.614c8.979,1.449,17.971,2.907,26.954,4.356
		c-8.983,1.184-17.975,2.357-26.954,3.525c0,4.854,0,9.711,0,14.56c8.979,1.476,17.971,2.952,26.954,4.422
		c-8.983,1.093-17.975,2.183-26.954,3.273c0,2.669,0,5.337,0,7.991c0,2.572-0.944,3.745,1.827,3.406
		c18.852-2.36,37.718-4.723,56.578-7.086c0-4.395,0-8.792,0-13.201c-10.746-1.449-21.484-2.907-32.222-4.356
		c10.745-1.542,21.483-3.083,32.222-4.637c0-5.104,0-10.191,0-15.307c-18.396-2.357-36.809-4.747-55.211-7.126
		C417.037,343.946,417.8,344.088,417.8,348.012z"/>
	<path fill="#000002" d="M1779.767,401.548V566.47v16.864h3.977h0.008v-0.008v-9.25h4.751c2.795,0,5.598,0,8.402,0v-17.058
		c0-7.57,3.799-14.459,11.476-16.467c4.65-1.212,9.702-0.189,13.595,2.652c4.474,3.259,6.73,8.327,6.73,13.815v18.542
		c5.987,0,11.96,0,17.945,0h1.183V401.548H1779.767z"/>
	<path fill="#000002" d="M1736.067,741.75c-15.224,0-30.442,0-45.682,0c0-7.256,0-14.493,0-21.739c-0.644,0-1.299,0-1.94,0
		c0-3.032,0-6.088,0-9.139c-2.033-1.211-4.054-2.397-6.072-3.589c0-1.51,0-2.994,0-4.51c1.362-4.138,1.037-7.607,0-10.781
		c0-1.486,0-3.001,0-4.488c0.986-1.151,1.993-2.301,2.996-3.443c0-3.185,0-6.342,0-9.517c-0.879,0-1.739,0-2.613,0
		c-1.776-2.316-3.541-4.635-5.325-6.95c0.747-4.086-0.618-4.496-2.317-4.357c-0.266-4.373,1.23-4.604-4.342-6.289
		c-0.285-4.111,0.746-3.694-3.75-6.593c-0.749-11.36-1.494-22.708-2.255-34.066c3.8-0.567,3.879-5.617-0.583-5.998
		c-1.064-16.213-2.116-32.419-3.17-48.621c2.889-3.016,1.482-4.509-1.118-5.537c0-2.135,0-4.285,0-6.43
		c2.514-1.252,4.399-3.205,5.617-5.919c2.007-1.191,3.978-2.382,5.989-3.584c0-2.183,0-4.356,0-6.526
		c0.333-0.448,0.709-0.883,1.044-1.359c0-6.379,0-12.76,0-19.151c-2.08,0-4.144,0-6.21,0c-0.774,0.854-1.561,1.748-2.319,2.601
		c0,0.348,0,0.703,0,1.037c-4.055-0.069-8.098-0.127-12.139-0.203c0-2.607,0-5.199,0-7.808c-1.417-1.703-2.835-3.399-4.274-5.094
		c-0.05-3.829-0.101-7.695-0.147-11.532c2.38-5.586,6.222-8.152-0.143-10.365c-1.324-0.458-2.635-0.905-3.954-1.382
		c0-3.997,0-7.995,0-11.985c-1.799-0.597-3.603-1.194-5.402-1.797c-5.561,0.628-5.165-24.968-6.29-43.862
		c-0.105-10.904-0.208-21.823-0.306-32.733c1.483-0.298,2.053-1.194,1.745-2.696c-0.427-3.417-0.809-6.833-1.202-10.25
		c1.978-0.194,3.093-0.939,2.32-2.925c2.144,0.282,3.18-0.544,3.126-2.465c-1.176-18.28-2.196-36.462-7.041-56.761
		c3.932-2.576,5.355-9.39,6.449-16.776c2.764-4.75,5.553-9.486,8.313-14.236c3.251-0.494,7.186-2.608,15.87-15.934
		c2.114-1.698,4.043-3.523,4.935-6.228c-1.086-1.906-2.431-3.52-3.95-4.938c1.466-2.529,2.929-5.05,4.419-7.562
		c-0.492-0.58-0.946-1.142-1.44-1.721c0.6-0.524,1.158-1.044,1.749-1.563c1.296-1.177,1.33-0.937,0.063-2.131
		c-0.627-0.593-1.238-1.181-1.88-1.777c-8.548-3.635-17.124-7.237-25.679-10.869c-3.396-1.439-2.083,1.663-2.245,4.641
		c-0.936-0.5-1.857-0.984-2.761-1.491c-2.582,3.811-5.164,7.64-7.728,11.46c-1.662-2.825-3.867-4.707-6.448-5.928
		c-2.403-1.01-3.832-2.987-4.332-5.912c-0.596-4.295-2.07-8.782-4.647-13.474c0.356-2.924,0.33-5.718-1.436-7.948
		c1.014-1.643-0.364-3.347-2.835-5.094c-1.049-2.345-2.985-4.111-6.818-4.647c-0.068-0.693-0.433-1.037-1.116-1.037
		c0.596-2.906-0.852-3.53-2.464-3.973c-0.997-5.039-2.006-10.081-3.008-15.122c2.441-0.554,2.502-3.698,0.148-9.433
		c-1.045-2.558-1.871-5.118-1.15-7.682c2.311,0.664,2.949,0.33,2.484-1.78c-0.358-1.631-0.579-3.326-1.246-4.856
		c0.279-0.609,0.405-1.221,0-1.835c0.449-0.528,0.551-1.203,0.449-1.969c27.376-0.938,28.017-0.051,0.667-5.463
		c0.08-0.946,0.08-1.878-0.077-3.444c26.638-9.589,25.829-8.597-1.513-4.818c-0.378-1.456-1.108-2.548-2.005-3.504
		c19.921-20.478,15.769-16.089-4.818-2.837c-2.087-1.143-4.236-1.564-6.406-1.805c0.367-24.872,0.941-23.006-5.839-0.297
		c-2.346,0.016-4.792,0.484-7.334,1.493c-16.379-14.937-17.366-17.425-4.846,2.895c-1.954,1.13-3.324,2.403-4.568,3.721
		c-4.783,0-9.604,0-14.425,0c-0.389-10.198-1.402-20.378-3.927-30.577c-1.703-6.889-3.216-14.702-0.762-24.855
		c2.047-8.405,2.127-16.381-3.789-20.703l-0.121-3.707c1.712-0.719,2.7-2.02,1.667-4.195c8.195-1.346,11.621-4.366,8.099-9.826
		c-0.501-1.586-0.061-3.369,1.352-5.363c-0.659-3.323-5.425-4.226-11.689-4.26c0.078-1.212,0.156-2.406,0.235-3.605
		c2.537-1.646,7.162-13.009,2.838-10.707c-0.466-0.801-0.954-1.603-1.42-2.393c-0.26-1.042-0.557-2.108-0.824-3.146
		c-1.592-3.284-1.249-4.237-2.913-0.605c-1.931,1.26-3.86,2.495-5.762,3.75c-5.859-1.381-6.377-2.476-3.083,3.066
		c-0.76,1.075-1.486,2.159-2.249,3.223c-5.349-4.62,0.133,4.875,1.044,7.492c0.072,0.98,0.149,1.949,0.221,2.924
		c-5.114-0.17-8.316,1.185-10.634,3.222c1.497,2.097,2.007,4.093,1.497,5.992c-4.845,5.601,0.396,7.612,4.266,10.109
		c-1.013,2.855,0.322,5.402,2.319,7.86c-1.826,2.256-1.383,4.147,0.577,5.792c-0.524,1.869-0.458,3.309,0.018,4.469
		c-2.836,3.579,0.958,8.871,3.765,13.92c0.845,19.029-2.923,35.727,1.927,52.269c0.165,3.444,0.322,6.887,0.481,10.33
		c-15.178,21.752-13.629,32.936-6.009,40.289c1.929,1.502,1.914,3.388,1.361,5.392c-2.899,4.3-3.233,8.442,0.282,7.941
		c-1.264,2.965,4.943,3.232,5.994,7.634c-3.061,5.621-2.243,8.578-0.295,10.793c-8.703,3.153,0.643,16.552,4.936,17.822
		c0.301,5.199,1.713,9.382,4.197,12.578c-23.152,35.748-8.993,38.807,0.592,35.353c-0.828,7.604-0.73,11.056,0,11.68
		c-13.282,21.861-7.697,18.708-3.958,23.891c-0.823,7.903-0.152,14.659,2.613,19.763c-0.416,8.61,0.031,15.797,1.196,21.806
		c-2.109,10.414-7.844,12.764-2.997,16.168c-0.538,10.09-9.17,13.651-6.285,43.885c-1.629,1.906-1.894,4.206-0.752,6.885
		c-3.71,3.807-3.71,6.676,0,8.688c-2.388,7.966-5.313,15.397-9.732,21.265c-5.627,7.457-7.562,10.873-6.289,15.871
		c-1.089,1.152-2.195,2.302-3.284,3.447c0,2.966,0,5.968,0,8.971l-0.028,0.037v-0.018c-1.588,1.827-3.142,3.653-4.699,5.462
		c-3.714,4.34-0.964,5.18,2.108,9.748c0,1.987,0,3.994,0,5.984c-2.337-0.241-2.644,1.766-2.37,4.408h-2.99
		c-1.244,0-1.033,2.253-0.758,4.643h-3.227c-1.522,0-0.906,2.552-0.959,4.517h-2.924c-1.458,0-1.45,2.335-1.347,4.166h-3.009
		c-1.109,0-0.714,2.712-0.809,4.043c-1.265,0.234-3.76-0.59-3.76,0.682v17.453c0.715,0.757,1.405,1.484,2.113,2.249
		c0,1.845,0,3.692,0,5.525c2.006,0,3.993,0,5.982,0c0.198,1.932,1.314,3.461,4.5,4.197c0,1.361,0,2.684,0,4.04
		c-4.328,0.607-3.421,5.531-0.296,6.29c-0.397,16.258-0.8,32.515-1.196,48.756c-2.759,3.293-3.094,5.834,0.149,7.344
		c-0.277,11.373-0.597,22.748-0.905,34.135c-1.174,0.848-2.346,1.69-3.513,2.543c0,1.442,0,2.898,0,4.35
		c-1.204,0.842-2.396,1.69-3.595,2.535c0,1.62,0,3.247,0,4.874c-2.395,1.969-4.794,3.945-7.183,5.907c0,1.763,0,3.546,0,5.32
		c-0.412,0.259-0.8,0.501-1.191,0.765c0,2.515,0,5.042,0,7.567c1.198,1.401,2.389,2.84,3.589,4.245c0,1.153,0,2.303,0,3.446
		c-1.932,3.695-1.002,7.174,0,10.65c0,1.188,0,2.355,0,3.529c-2.35,1.41-4.708,2.84-7.05,4.247c0,6.713,0,13.393,0,20.079
		c-3.107,0-6.212,0-9.289,0c-9.904,5.409-19.797,10.814-29.686,16.188c-0.274,4.596-0.457,9.19-0.771,13.783
		c-13.679,0-27.504,0-41.179,0c-12.287,7.215-24.586,14.396-36.865,21.595c0,4.584,0,9.17,0,13.755c158.605,0,317.214,0,475.835,0
		c0-12.83,0-25.655,0-38.479c-32.06,0-64.106,0-96.161,0C1736.067,762.067,1736.067,751.895,1736.067,741.75z M1543.339,144.152
		v-0.009l-0.006-0.009c3.72,0.678,7.425,1.344,11.154,2.029c-0.657,0.958-0.993,1.88-1.115,2.767
		c-2.019,0.225-4.042,0.462-6.08,0.686C1546.355,147.305,1543.897,147.728,1543.339,144.152z M1551.987,168.929
		c-0.759,0.695-1.785-0.546-1.455-1.955c0.997-4.157,1.937-7.714-0.401-9.085c0.107-1.432-0.297-2.785-0.877-4.124
		c1.015-0.022,2.046-0.044,3.046-0.067c0.081,2.189,0.88,3.55,1.421,4.762C1555.769,163.159,1554.68,166.54,1551.987,168.929z
		 M1585.801,196.084c-0.097-1.849-0.185-3.727-0.28-5.583c0.789,1.842,1.692,2.398,2.738,1.046c0.247,1.955,0.493,3.907,0.747,5.858
		C1588.074,196.712,1587.036,196.228,1585.801,196.084z"/>
</g>
</svg>
