<svg width="256" height="256" viewBox="0 0 256 256" xmlns="http://www.w3.org/2000/svg" preserveAspectRatio="xMidYMid">

 <g>
  <g fill="#F7DF1E" id="svg_1">
   <path id="svg_2" fill="#007acc" d="m0,-0.102152l257.284555,0l0,273.078405l-257.284555,0l0,-273.078405z"/>
   <path id="svg_4" fill="#f7fafc" d="m186.239522,202.169494c4.290292,7.842021 9.866318,13.602449 19.730945,13.602449c8.293548,0 13.582203,-4.641112 13.582203,-11.042175c0,-7.681201 -5.432678,-10.401918 -14.583271,-14.881072l-5.002635,-2.402101c-14.441276,-6.879744 -24.020898,-15.520951 -24.020898,-33.764133c0,-16.802601 11.437734,-29.605107 29.310228,-29.605107c12.724822,0 21.875076,4.961241 28.451155,17.923432l-15.584339,11.201103c-3.431557,-6.8805 -7.14778,-9.600459 -12.866478,-9.600459c-5.862046,0 -9.579623,4.160539 -9.579623,9.600459c0,6.721191 3.717576,9.442287 12.295117,13.603205l5.00365,2.40021c17.014098,8.161771 26.593719,16.482094 26.593719,35.204334c0,20.164334 -14.154242,31.204995 -33.169462,31.204995c-18.586529,0 -30.59664,-9.920967 -36.457671,-22.883536"/>
   <text font-weight="bold" stroke="null" transform="matrix(1,0,0,0.9257551145364431,0,6.0092617212092065) " xml:space="preserve" text-anchor="start" font-family="Helvetica, Arial, sans-serif" font-size="175" id="svg_5" y="250.570896" x="65.5" stroke-width="0" fill="#fcf9f9">T</text>
  </g>
 </g>
</svg>
